<svg width="150" height="150" viewBox="0 0 150 150" fill="none" xmlns="http://www.w3.org/2000/svg">
<circle cx="75" cy="75" r="74.5" fill="white" stroke="#0D3C99"/>
<g filter="url(#filter0_d_24_107)">
<path d="M67.5 15H77.5C80.2614 15 82.5 17.2386 82.5 20V135H67.5V15Z" fill="#0D3C99"/>
</g>
<g filter="url(#filter1_d_24_107)">
<path d="M45 70C45 69.4477 45.4477 69 46 69H55C57.7614 69 60 71.2386 60 74V134C60 134.552 59.5523 135 59 135H46C45.4477 135 45 134.552 45 134V70Z" fill="#0D3C99"/>
</g>
<g filter="url(#filter2_d_24_107)">
<path d="M90 41.5C90 40.9477 90.4477 40.5 91 40.5H100C102.761 40.5 105 42.7386 105 45.5V134C105 134.552 104.552 135 104 135H91C90.4477 135 90 134.552 90 134V41.5Z" fill="#0D3C99"/>
</g>
<path d="M52.5634 105.165C52.028 105.165 51.5404 105.077 51.1004 104.901C50.6604 104.725 50.2827 104.468 49.9674 104.131C49.652 103.794 49.4064 103.379 49.2304 102.888C49.0617 102.389 48.9774 101.821 48.9774 101.183C48.9774 100.545 49.0727 99.9803 49.2634 99.489C49.4614 98.9903 49.7254 98.5723 50.0554 98.235C50.3854 97.8977 50.7704 97.641 51.2104 97.465C51.6504 97.289 52.1197 97.201 52.6184 97.201C52.9337 97.201 53.216 97.223 53.4654 97.267C53.722 97.311 53.942 97.3623 54.1254 97.421C54.316 97.4797 54.47 97.5383 54.5874 97.597C54.7047 97.6557 54.7854 97.6997 54.8294 97.729L54.5214 98.609C54.4554 98.565 54.36 98.5173 54.2354 98.466C54.1107 98.4147 53.9677 98.3633 53.8064 98.312C53.6524 98.2607 53.48 98.2203 53.2894 98.191C53.106 98.1543 52.919 98.136 52.7284 98.136C52.325 98.136 51.962 98.2057 51.6394 98.345C51.3167 98.4843 51.0417 98.686 50.8144 98.95C50.587 99.214 50.411 99.5367 50.2864 99.918C50.169 100.292 50.1104 100.714 50.1104 101.183C50.1104 101.638 50.1617 102.052 50.2644 102.426C50.3744 102.8 50.5357 103.123 50.7484 103.394C50.961 103.658 51.225 103.863 51.5404 104.01C51.863 104.157 52.237 104.23 52.6624 104.23C53.1537 104.23 53.5607 104.179 53.8834 104.076C54.206 103.973 54.448 103.882 54.6094 103.801L54.8844 104.681C54.833 104.718 54.7414 104.765 54.6094 104.824C54.4774 104.875 54.3124 104.927 54.1144 104.978C53.9164 105.029 53.6854 105.073 53.4214 105.11C53.1574 105.147 52.8714 105.165 52.5634 105.165Z" fill="white"/>
<path d="M73.9143 98.29C73.8997 98.7007 73.885 99.1003 73.8703 99.489C73.8557 99.8703 73.8337 100.244 73.8043 100.611C73.775 100.97 73.731 101.322 73.6723 101.667C73.6137 102.012 73.533 102.349 73.4303 102.679C73.3277 103.009 73.1993 103.321 73.0453 103.614C72.8987 103.9 72.7117 104.153 72.4843 104.373C72.2643 104.586 72.0003 104.758 71.6923 104.89C71.3917 105.022 71.036 105.095 70.6253 105.11L70.5043 104.186C71.0177 104.127 71.4137 103.966 71.6923 103.702C71.9783 103.438 72.213 103.035 72.3963 102.492C72.6017 101.876 72.73 101.135 72.7813 100.27C72.84 99.3973 72.8693 98.433 72.8693 97.377H77.1923V105H76.1253V98.29H73.9143Z" fill="white"/>
<path d="M96.2188 105.066C96.0648 105.066 95.8962 105.062 95.7128 105.055C95.5368 105.048 95.3572 105.037 95.1738 105.022C94.9978 105.007 94.8218 104.989 94.6458 104.967C94.4698 104.945 94.3085 104.916 94.1618 104.879V97.487C94.3085 97.4503 94.4698 97.421 94.6458 97.399C94.8218 97.377 94.9978 97.3587 95.1738 97.344C95.3572 97.3293 95.5368 97.3183 95.7128 97.311C95.8888 97.3037 96.0538 97.3 96.2078 97.3C96.6478 97.3 97.0585 97.333 97.4398 97.399C97.8285 97.465 98.1622 97.5787 98.4408 97.74C98.7268 97.894 98.9505 98.0993 99.1118 98.356C99.2732 98.6127 99.3538 98.928 99.3538 99.302C99.3538 99.72 99.2548 100.065 99.0568 100.336C98.8588 100.6 98.5948 100.798 98.2648 100.93C98.7122 101.062 99.0678 101.271 99.3318 101.557C99.5958 101.843 99.7278 102.246 99.7278 102.767C99.7278 103.53 99.4455 104.105 98.8808 104.494C98.3235 104.875 97.4362 105.066 96.2188 105.066ZM95.2178 101.447V104.131C95.2985 104.138 95.3938 104.146 95.5038 104.153C95.5992 104.16 95.7092 104.168 95.8338 104.175C95.9658 104.175 96.1162 104.175 96.2848 104.175C96.6002 104.175 96.8972 104.157 97.1758 104.12C97.4618 104.076 97.7112 104.003 97.9238 103.9C98.1365 103.797 98.3052 103.654 98.4298 103.471C98.5618 103.288 98.6278 103.057 98.6278 102.778C98.6278 102.529 98.5802 102.32 98.4848 102.151C98.3895 101.975 98.2502 101.836 98.0668 101.733C97.8908 101.63 97.6782 101.557 97.4288 101.513C97.1795 101.469 96.9008 101.447 96.5928 101.447H95.2178ZM95.2178 100.589H96.3398C96.6038 100.589 96.8532 100.571 97.0878 100.534C97.3225 100.497 97.5242 100.431 97.6928 100.336C97.8688 100.241 98.0045 100.116 98.0998 99.962C98.2025 99.808 98.2538 99.6137 98.2538 99.379C98.2538 99.159 98.2025 98.9757 98.0998 98.829C97.9972 98.675 97.8542 98.554 97.6708 98.466C97.4948 98.3707 97.2858 98.301 97.0438 98.257C96.8018 98.213 96.5452 98.191 96.2738 98.191C96.0025 98.191 95.7898 98.1947 95.6358 98.202C95.4818 98.2093 95.3425 98.2203 95.2178 98.235V100.589Z" fill="white"/>
<defs>
<filter id="filter0_d_24_107" x="63.5" y="15" width="23" height="128" filterUnits="userSpaceOnUse" color-interpolation-filters="sRGB">
<feFlood flood-opacity="0" result="BackgroundImageFix"/>
<feColorMatrix in="SourceAlpha" type="matrix" values="0 0 0 0 0 0 0 0 0 0 0 0 0 0 0 0 0 0 127 0" result="hardAlpha"/>
<feOffset dy="4"/>
<feGaussianBlur stdDeviation="2"/>
<feComposite in2="hardAlpha" operator="out"/>
<feColorMatrix type="matrix" values="0 0 0 0 0 0 0 0 0 0 0 0 0 0 0 0 0 0 0.25 0"/>
<feBlend mode="normal" in2="BackgroundImageFix" result="effect1_dropShadow_24_107"/>
<feBlend mode="normal" in="SourceGraphic" in2="effect1_dropShadow_24_107" result="shape"/>
</filter>
<filter id="filter1_d_24_107" x="41" y="69" width="23" height="74" filterUnits="userSpaceOnUse" color-interpolation-filters="sRGB">
<feFlood flood-opacity="0" result="BackgroundImageFix"/>
<feColorMatrix in="SourceAlpha" type="matrix" values="0 0 0 0 0 0 0 0 0 0 0 0 0 0 0 0 0 0 127 0" result="hardAlpha"/>
<feOffset dy="4"/>
<feGaussianBlur stdDeviation="2"/>
<feComposite in2="hardAlpha" operator="out"/>
<feColorMatrix type="matrix" values="0 0 0 0 0 0 0 0 0 0 0 0 0 0 0 0 0 0 0.25 0"/>
<feBlend mode="normal" in2="BackgroundImageFix" result="effect1_dropShadow_24_107"/>
<feBlend mode="normal" in="SourceGraphic" in2="effect1_dropShadow_24_107" result="shape"/>
</filter>
<filter id="filter2_d_24_107" x="86" y="40.5" width="23" height="102.5" filterUnits="userSpaceOnUse" color-interpolation-filters="sRGB">
<feFlood flood-opacity="0" result="BackgroundImageFix"/>
<feColorMatrix in="SourceAlpha" type="matrix" values="0 0 0 0 0 0 0 0 0 0 0 0 0 0 0 0 0 0 127 0" result="hardAlpha"/>
<feOffset dy="4"/>
<feGaussianBlur stdDeviation="2"/>
<feComposite in2="hardAlpha" operator="out"/>
<feColorMatrix type="matrix" values="0 0 0 0 0 0 0 0 0 0 0 0 0 0 0 0 0 0 0.25 0"/>
<feBlend mode="normal" in2="BackgroundImageFix" result="effect1_dropShadow_24_107"/>
<feBlend mode="normal" in="SourceGraphic" in2="effect1_dropShadow_24_107" result="shape"/>
</filter>
</defs>
</svg>
